#!OML:ASF H:\Pregnant\Project 1\Capture day 1\Session 1\femalepreg.ASF
:FULLY-SPECIFIED
:DEGREES
962
root -2.84166 15.962 -20.4365 378.875 11.7185 -361.942
lowerback -15.8977 0.639783 11.2443
upperback -8.0278 -0.733193 4.22314
thorax 0.167888 -0.580341 -1.95903
lowerneck -26.0645 -1.30709 0.835305
upperneck 34.5412 -1.43496 -2.33751
head 16.9126 -0.815111 -1.49783
rclavicle -6.06293e-015 -3.49861e-014
rhumerus -7.16467 15.3941 -77.9022
rradius 55.9391
rwrist -29.5652
rhand -20.7109 -46.6788
rfingers 7.12502
rthumb 5.65343 -76.5833
lclavicle -6.06293e-015 -3.49861e-014
lhumerus -16.3627 -29.0964 67.0045
lradius 57.795
lwrist 63.4326
lhand -27.7963 24.8785
lfingers 7.12502
lthumb -1.18922 54.8549
rfemur -28.3166 10.866 25.0265
rtibia 37.6576
rfoot -20.9401 -17.5195
rtoes -8.04186
lfemur -50.0519 -7.94394 -11.3585
ltibia 43.04
lfoot -5.90257 7.93247
ltoes -38.2561
963
root -2.83535 15.9455 -20.3421 378.858 11.5289 -361.985
lowerback -15.7941 0.688714 11.2179
upperback -8.01795 -0.650327 4.12437
thorax 0.13301 -0.542386 -2.03615
lowerneck -26.1336 -1.25457 0.825364
upperneck 34.5284 -1.33538 -2.37186
head 16.925 -0.781631 -1.49077
rclavicle -2.94201e-014 4.29375e-014
rhumerus -6.98067 15.6564 -77.8466
rradius 55.8908
rwrist -29.6481
rhand -20.7937 -46.7731
rfingers 7.12502
rthumb 5.57356 -76.6798
lclavicle -2.94201e-014 4.29375e-014
lhumerus -16.2512 -29.0739 66.8281
lradius 57.9657
lwrist 63.3562
lhand -27.6156 24.8207
lfingers 7.12502
lthumb -1.01462 54.798
rfemur -27.9532 10.8424 25.1664
rtibia 37.6955
rfoot -21.1413 -17.3829
rtoes -8.41429
lfemur -50.1717 -8.14549 -11.0694
ltibia 41.63
lfoot -5.53122 8.25402
ltoes -38.4929
964
root -2.8282 15.9288 -20.247 378.835 11.3402 -362.027
lowerback -15.6965 0.741794 11.1921
upperback -7.9934 -0.564513 4.01584
thorax 0.117673 -0.501863 -2.12388
lowerneck -26.2201 -1.20111 0.815593
upperneck 34.5047 -1.23536 -2.4039
head 16.9361 -0.747706 -1.48254
rclavicle 8.44835e-015 -3.18055e-015
rhumerus -6.77653 15.9027 -77.7836
rradius 55.8377
rwrist -29.7284
rhand -20.8886 -46.8747
rfingers 7.12502
rthumb 5.48189 -76.7838
lclavicle 8.44835e-015 -3.18055e-015
lhumerus -16.1017 -29.0515 66.636
lradius 58.1318
lwrist 63.2977
lhand -27.5066 24.7671
lfingers 7.12502
lthumb -0.909337 54.7449
rfemur -27.5758 10.8025 25.3019
rtibia 37.7274
rfoot -21.3358 -17.2311
rtoes -8.81558
lfemur -50.2832 -8.32341 -10.7992
ltibia 40.2378
lfoot -5.21237 8.41512
ltoes -38.7472
965
root -2.82054 15.9124 -20.151 378.805 11.1492 -362.074
lowerback -15.6072 0.802643 11.1713
upperback -7.95468 -0.471728 3.89458
thorax 0.122758 -0.456911 -2.227
lowerneck -26.3178 -1.14741 0.814711
upperneck 34.4682 -1.13953 -2.43518
head 16.943 -0.714275 -1.4762
rclavicle -3.90612e-014 4.45278e-014
rhumerus -6.55949 16.1344 -77.715
rradius 55.7848
rwrist -29.8249
rhand -20.9965 -46.9853
rfingers 7.12502
rthumb 5.37772 -76.8971
lclavicle -3.90612e-014 4.45278e-014
lhumerus -15.9131 -29.0398 66.4238
lradius 58.2913
lwrist 63.263
lhand -27.4624 24.7284
lfingers 7.12502
lthumb -0.866656 54.7064
rfemur -27.1786 10.7678 25.437
rtibia 37.7444
rfoot -21.5202 -17.0765
rtoes -9.22142
lfemur -50.3851 -8.47029 -10.5449
ltibia 38.8695
lfoot -4.97166 8.41717
ltoes -39.035
966
root -2.81254 15.8963 -20.0546 378.767 10.9565 -362.123
lowerback -15.5088 0.859259 11.1394
upperback -7.90976 -0.382393 3.77725
thorax 0.130042 -0.412967 -2.32053
lowerneck -26.416 -1.08794 0.801884
upperneck 34.4189 -1.02961 -2.46548
head 16.9439 -0.676738 -1.46393
rclavicle 3.97569e-016 8.74653e-014
rhumerus -6.33712 16.3757 -77.6316
rradius 55.7355
rwrist -29.9369
rhand -21.109 -47.0965
rfingers 7.12502
rthumb 5.26909 -77.011
lclavicle 3.97569e-016 8.74653e-014
lhumerus -15.7099 -29.0074 66.2211
lradius 58.4358
lwrist 63.245
lhand -27.4769 24.7528
lfingers 7.12502
lthumb -0.880697 54.7307
rfemur -26.76 10.7458 25.5672
rtibia 37.744
rfoot -21.6917 -16.9238
rtoes -9.61901
lfemur -50.4744 -8.58359 -10.3139
ltibia 37.5279
lfoot -4.81332 8.26125
ltoes -39.3433
967
root -2.80423 15.8805 -19.9582 378.715 10.7655 -362.175
lowerback -15.3869 0.920519 11.1162
upperback -7.85951 -0.2849 3.64168
thorax 0.131425 -0.365679 -2.437
lowerneck -26.5207 -1.02754 0.797329
upperneck 34.3603 -0.928113 -2.4815
head 16.9415 -0.639313 -1.4483
rclavicle -3.05134e-014 2.06736e-014
rhumerus -6.11622 16.5912 -77.5544
rradius 55.6807
rwrist -30.0738
rhand -21.2162 -47.1995
rfingers 7.12502
rthumb 5.16561 -77.1165
lclavicle -3.05134e-014 2.06736e-014
lhumerus -15.4798 -28.9998 65.9959
lradius 58.5738
lwrist 63.2597
lhand -27.6785 24.9943
lfingers 7.12502
lthumb -1.07544 54.9713
rfemur -26.3135 10.7244 25.6983
rtibia 37.7221
rfoot -21.8586 -16.7611
rtoes -9.97955
lfemur -50.5461 -8.6669 -10.1058
ltibia 36.2163
lfoot -4.72133 7.96019
ltoes -39.6329
968
root -2.7956 15.8648 -19.8622 378.653 10.5877 -362.227
lowerback -15.2312 0.974363 11.0885
upperback -7.81937 -0.190483 3.50312
thorax 0.103961 -0.321423 -2.5546
lowerneck -26.6031 -0.966407 0.783051
upperneck 34.291 -0.824939 -2.48742
head 16.9284 -0.600987 -1.42548
rclavicle -3.60794e-014 5.08889e-014
rhumerus -5.91362 16.8196 -77.4697
rradius 55.6314
rwrist -30.2471
rhand -21.3173 -47.2993
rfingers 7.12502
rthumb 5.06793 -77.2187
lclavicle -3.60794e-014 5.08889e-014
lhumerus -15.2541 -28.9985 65.7816
lradius 58.6982
lwrist 63.2937
lhand -28.0067 25.3661
lfingers 7.12502
lthumb -1.39237 55.3413
rfemur -25.8456 10.7085 25.8273
rtibia 37.6768
rfoot -22.0146 -16.6034
rtoes -10.3078
lfemur -50.6113 -8.73173 -9.92031
ltibia 34.9386
lfoot -4.66886 7.53634
ltoes -39.8833
969
root -2.78623 15.8495 -19.7654 378.581 10.4214 -362.283
lowerback -15.066 1.02482 11.0644
upperback -7.77634 -0.0998974 3.35974
thorax 0.0742577 -0.279239 -2.68009
lowerneck -26.6879 -0.899124 0.771264
upperneck 34.2182 -0.715716 -2.48836
head 16.9143 -0.559067 -1.39945
rclavicle 4.27387e-015 -2.54444e-014
rhumerus -5.71523 17.0465 -77.3779
rradius 55.5856
rwrist -30.4535
rhand -21.4011 -47.3931
rfingers 7.12502
rthumb 4.98708 -77.3145
lclavicle 4.27387e-015 -2.54444e-014
lhumerus -15.0167 -29.0009 65.5667
lradius 58.8102
lwrist 63.3419
lhand -28.3496 25.82
lfingers 7.12502
lthumb -1.72354 55.7928
rfemur -25.3473 10.6878 25.9584
rtibia 37.6043
rfoot -22.1621 -16.4442
rtoes -10.6167
lfemur -50.663 -8.77835 -9.75799
ltibia 33.6983
lfoot -4.63464 7.01433
ltoes -40.0811
970
root -2.77596 15.8346 -19.6675 378.505 10.2611 -362.352
lowerback -14.8957 1.07906 11.0563
upperback -7.74091 -0.00488544 3.20689
thorax 0.0339648 -0.236153 -2.82389
lowerneck -26.7446 -0.833495 0.763096
upperneck 34.1363 -0.615771 -2.47721
head 16.8885 -0.518474 -1.37005
rclavicle -1.09332e-015 -2.8625e-014
rhumerus -5.54378 17.262 -77.2923
rradius 55.5451
rwrist -30.6909
rhand -21.474 -47.4861
rfingers 7.12502
rthumb 4.91663 -77.409
lclavicle -1.09332e-015 -2.8625e-014
lhumerus -14.7839 -29.0262 65.3507
lradius 58.914
lwrist 63.402
lhand -28.6635 26.256
lfingers 7.12502
lthumb -2.02669 56.2261
rfemur -24.823 10.6674 26.0979
rtibia 37.4984
rfoot -22.2925 -16.285
rtoes -10.9506
lfemur -50.7089 -8.80596 -9.60743
ltibia 32.5028
lfoot -4.59273 6.43672
ltoes -40.2212
971
root -2.76491 15.8199 -19.569 378.433 10.1153 -362.431
lowerback -14.7286 1.13219 11.0528
upperback -7.70819 0.0878369 3.05456
thorax -0.00760027 -0.194395 -2.97022
lowerneck -26.7936 -0.766736 0.758153
upperneck 34.0461 -0.516669 -2.46404
head 16.8567 -0.477432 -1.34022
rclavicle -1.70955e-014 -9.54166e-015
rhumerus -5.38738 17.4728 -77.1939
rradius 55.5237
rwrist -30.9555
rhand -21.5334 -47.5873
rfingers 7.12502
rthumb 4.85928 -77.5116
lclavicle -1.70955e-014 -9.54166e-015
lhumerus -14.5453 -29.0588 65.144
lradius 59.0055
lwrist 63.4647
lhand -28.9295 26.6966
lfingers 7.12502
lthumb -2.28362 56.6641
rfemur -24.2805 10.6417 26.245
rtibia 37.3552
rfoot -22.3896 -16.1359
rtoes -11.3562
lfemur -50.7631 -8.8214 -9.46959
ltibia 31.3577
lfoot -4.51834 5.82813
ltoes -40.3641
972
root -2.75278 15.8057 -19.4686 378.365 9.96194 -362.53
lowerback -14.5767 1.19451 11.0673
upperback -7.67531 0.18808 2.89927
thorax -0.0400029 -0.148987 -3.12878
lowerneck -26.838 -0.696304 0.758212
upperneck 33.9497 -0.418529 -2.44118
head 16.8206 -0.434525 -1.30698
rclavicle 9.44227e-015 -6.52014e-014
rhumerus -5.24271 17.6674 -77.0965
rradius 55.5137
rwrist -31.2358
rhand -21.5807 -47.7038
rfingers 7.12502
rthumb 4.81365 -77.6291
lclavicle 9.44227e-015 -6.52014e-014
lhumerus -14.2995 -29.0996 64.9386
lradius 59.0834
lwrist 63.5249
lhand -29.177 27.1313
lfingers 7.12502
lthumb -2.52261 57.0962
rfemur -23.7154 10.6234 26.4044
rtibia 37.1723
rfoot -22.4545 -15.986
rtoes -11.8506
lfemur -50.8167 -8.8089 -9.33789
ltibia 30.2706
lfoot -4.41333 5.22627
ltoes -40.5133
